# xmcd CD database file
#
# Track frame offsets:
#	150
#	20465
#	41490
#	61245
#	84662
#	108882
#	124857
#	139070
#	156292
#	174545
#	200787
#	219212
#	251302
#
# Disc length: 3540 seconds
#
# Revision: 0
# Processed by: cddbd v1.5.1PL0 Copyright (c) Steve Scherf et al.
# Submitted via: CDex 1.51
#
DISCID=ae0dd20d
DTITLE=Phantom's Opera - So Long To Broadway
DYEAR=1997
DGENRE=Hard Rock
TTITLE0=The Raven
TTITLE1=I Believed
TTITLE2=Chesters Dead~Contata For Chester~Prelude B
TTITLE3=Lotta Time
TTITLE4=Contraire My Love
TTITLE5=She Rides
TTITLE6=So Long To Broadway
TTITLE7=Beg
TTITLE8=On-Line
TTITLE9=Father
TTITLE10=It Ain't Over
TTITLE11=Stay
TTITLE12=William Shakespeare
EXTD=YEAR: 1997
EXTT0=
EXTT1=
EXTT2=
EXTT3=
EXTT4=
EXTT5=
EXTT6=
EXTT7=
EXTT8=
EXTT9=
EXTT10=
EXTT11=
EXTT12=
PLAYORDER=
